<?xml version="1.0" encoding="UTF-8" standalone="no"?>
<!-- Created with Inkscape (http://www.inkscape.org/) -->

<svg
   width="512"
   height="512"
   viewBox="0 0 512 512"
   version="1.1"
   id="svg1"
   xmlns="http://www.w3.org/2000/svg"
   xmlns:svg="http://www.w3.org/2000/svg">
  <defs
     id="defs1" />
  <path
     d="m 230.40048,468.15953 q 0,7.04 -39.04,11.52 -39.04,3.84 -78.72,3.84 -39.040001,0 -49.920001,-3.2 -10.88,-3.84 -10.88,-12.16 V 70.079531 q 0,-14.08 37.12,-27.52 37.120001,-14.08 83.200001,-14.08 40.96,0 53.76,17.28 4.48,6.4 4.48,12.8 z m 229.75952,0 q 0,7.04 -39.04,11.52 -39.04,3.84 -78.72,3.84 -39.04,0 -49.92,-3.2 -10.88,-3.84 -10.88,-12.16 V 70.079531 q 0,-14.08 37.12,-27.52 37.12,-14.08 83.2,-14.08 40.96,0 53.76,17.28 4.48,6.4 4.48,12.8 z"
     id="text1"
     style="font-size:640px;font-family:'Titan One';-inkscape-font-specification:'Titan One';text-align:justify;letter-spacing:0px;word-spacing:2.28px;fill:#be916f;fill-opacity:1;fill-rule:evenodd;stroke-width:25;stroke-linejoin:round;stroke-dashoffset:7.5;stroke-opacity:0.496863"
     aria-label="II" />
</svg>
